HIERARCHY
ROOT Hip
{
	OFFSET	0.0000	0.0000	0.0000
	CHANNELS 6 Xposition Yposition Zposition Xrotation Yrotation Zrotation
	JOINT LowerSpine
	{
		OFFSET	0.0000	10.0859	-5.4579
		CHANNELS 3 Xrotation Yrotation Zrotation
		JOINT MiddleSpine
		{
			OFFSET	0.0000	9.2041	0.4808
			CHANNELS 3 Xrotation Yrotation Zrotation
			JOINT Chest
			{
				OFFSET	0.0000	11.3891	-2.5351
				CHANNELS 3 Xrotation Yrotation Zrotation
				JOINT Neck
				{
					OFFSET	0.0000	25.6648	-0.5337
					CHANNELS 3 Xrotation Yrotation Zrotation
					JOINT Head
					{
						OFFSET	0.0000	14.4932	3.9421
						CHANNELS 3 Xrotation Yrotation Zrotation
						End Site
						{
							OFFSET	0.0001	20.2508	0.6045
						}
					}
				}
				JOINT LClavicle
				{
					OFFSET	2.5911	24.7678	8.4856
					CHANNELS 3 Xrotation Yrotation Zrotation
					JOINT LShoulder
					{
						OFFSET	15.1374	3.5526	-5.7484
						CHANNELS 3 Xrotation Yrotation Zrotation
						JOINT LForearm
						{
							OFFSET	32.1549	-0.1142	-0.2786
							CHANNELS 3 Xrotation Yrotation Zrotation
							JOINT LHand
							{
								OFFSET	26.8240	0.0778	-0.1606
								CHANNELS 3 Xrotation Yrotation Zrotation
								JOINT LFinger1
								{
									OFFSET	10.3962	0.9092	2.8875
									CHANNELS 3 Xrotation Yrotation Zrotation
									JOINT LFinger11
									{
										OFFSET	3.8887	-0.9483	0.6852
										CHANNELS 3 Xrotation Yrotation Zrotation
										JOINT LFinger12
										{
											OFFSET	2.6547	-0.6476	0.4680
											CHANNELS 3 Xrotation Yrotation Zrotation
											End Site
											{
												OFFSET	1.8891	-0.5639	0.3064
											}
										}
									}
								}
								JOINT LFinger2
								{
									OFFSET	10.5514	1.0500	0.2514
									CHANNELS 3 Xrotation Yrotation Zrotation
									JOINT LFinger21
									{
										OFFSET	4.8082	0.0134	-0.0284
										CHANNELS 3 Xrotation Yrotation Zrotation
										JOINT LFinger22
										{
											OFFSET	2.6650	0.0081	-0.0162
											CHANNELS 3 Xrotation Yrotation Zrotation
											End Site
											{
												OFFSET	2.3938	-0.1690	0.0032
											}
										}
									}
								}
								JOINT LFinger3
								{
									OFFSET	9.9996	0.7006	-2.3657
									CHANNELS 3 Xrotation Yrotation Zrotation
									JOINT LFinger31
									{
										OFFSET	4.3629	-0.2209	-0.2731
										CHANNELS 3 Xrotation Yrotation Zrotation
										JOINT LFinger32
										{
											OFFSET	2.4861	-0.1251	-0.1562
											CHANNELS 3 Xrotation Yrotation Zrotation
											End Site
											{
												OFFSET	2.1982	-0.2703	-0.1039
											}
										}
									}
								}
								JOINT LFinger4
								{
									OFFSET	9.2792	-0.7052	-4.0856
									CHANNELS 3 Xrotation Yrotation Zrotation
									JOINT LFinger41
									{
										OFFSET	2.6836	-0.5596	-0.7408
										CHANNELS 3 Xrotation Yrotation Zrotation
										JOINT LFinger42
										{
											OFFSET	1.9679	-0.4099	-0.5436
											CHANNELS 3 Xrotation Yrotation Zrotation
											End Site
											{
												OFFSET	1.7467	-0.4799	-0.4007
											}
										}
									}
								}
								JOINT LFinger0
								{
									OFFSET	2.1505	-1.6278	1.6303
									CHANNELS 3 Xrotation Yrotation Zrotation
									JOINT LFinger01
									{
										OFFSET	4.0040	-1.3151	3.0189
										CHANNELS 3 Xrotation Yrotation Zrotation
										JOINT LFinger02
										{
											OFFSET	2.6366	-0.9434	1.8996
											CHANNELS 3 Xrotation Yrotation Zrotation
											End Site
											{
												OFFSET	1.9389	-0.6674	1.3277
											}
										}
									}
								}
							}
						}
					}
				}
				JOINT RClavicle
				{
					OFFSET	-2.5911	24.7678	8.4856
					CHANNELS 3 Xrotation Yrotation Zrotation
					JOINT RShoulder
					{
						OFFSET	-15.1401	3.5532	-5.7494
						CHANNELS 3 Xrotation Yrotation Zrotation
						JOINT RForearm
						{
							OFFSET	-32.1549	-0.1142	-0.2786
							CHANNELS 3 Xrotation Yrotation Zrotation
							JOINT RHand
							{
								OFFSET	-26.8240	0.0779	-0.1606
								CHANNELS 3 Xrotation Yrotation Zrotation
								JOINT RFinger1
								{
									OFFSET	-10.3962	0.9092	2.8875
									CHANNELS 3 Xrotation Yrotation Zrotation
									JOINT RFinger11
									{
										OFFSET	-3.8887	-0.9483	0.6852
										CHANNELS 3 Xrotation Yrotation Zrotation
										JOINT RFinger12
										{
											OFFSET	-2.6547	-0.6476	0.4680
											CHANNELS 3 Xrotation Yrotation Zrotation
											End Site
											{
												OFFSET	-1.8891	-0.5639	0.3064
											}
										}
									}
								}
								JOINT RFinger2
								{
									OFFSET	-10.5514	1.0500	0.2514
									CHANNELS 3 Xrotation Yrotation Zrotation
									JOINT RFinger21
									{
										OFFSET	-4.8082	0.0134	-0.0284
										CHANNELS 3 Xrotation Yrotation Zrotation
										JOINT RFinger22
										{
											OFFSET	-2.6650	0.0081	-0.0162
											CHANNELS 3 Xrotation Yrotation Zrotation
											End Site
											{
												OFFSET	-2.3938	-0.1690	0.0032
											}
										}
									}
								}
								JOINT RFinger3
								{
									OFFSET	-9.9996	0.7006	-2.3657
									CHANNELS 3 Xrotation Yrotation Zrotation
									JOINT RFinger31
									{
										OFFSET	-4.3629	-0.2209	-0.2731
										CHANNELS 3 Xrotation Yrotation Zrotation
										JOINT RFinger32
										{
											OFFSET	-2.4861	-0.1251	-0.1562
											CHANNELS 3 Xrotation Yrotation Zrotation
											End Site
											{
												OFFSET	-2.1982	-0.2703	-0.1039
											}
										}
									}
								}
								JOINT RFinger4
								{
									OFFSET	-9.2792	-0.7052	-4.0856
									CHANNELS 3 Xrotation Yrotation Zrotation
									JOINT RFinger41
									{
										OFFSET	-2.6836	-0.5596	-0.7408
										CHANNELS 3 Xrotation Yrotation Zrotation
										JOINT RFinger42
										{
											OFFSET	-1.9679	-0.4099	-0.5436
											CHANNELS 3 Xrotation Yrotation Zrotation
											End Site
											{
												OFFSET	-1.7467	-0.4799	-0.4007
											}
										}
									}
								}
								JOINT RFinger0
								{
									OFFSET	-2.1505	-1.6278	1.6303
									CHANNELS 3 Xrotation Yrotation Zrotation
									JOINT RFinger01
									{
										OFFSET	-4.0040	-1.3151	3.0189
										CHANNELS 3 Xrotation Yrotation Zrotation
										JOINT RFinger02
										{
											OFFSET	-2.6366	-0.9434	1.8996
											CHANNELS 3 Xrotation Yrotation Zrotation
											End Site
											{
												OFFSET	-1.9389	-0.6674	1.3277
											}
										}
									}
								}
							}
						}
					}
				}
			}
		}
	}
	JOINT RThigh
	{
		OFFSET	-10.7894	4.5591	-0.8894
		CHANNELS 3 Xrotation Yrotation Zrotation
		JOINT RShin
		{
			OFFSET	-0.8633	-46.9290	0.0000
			CHANNELS 3 Xrotation Yrotation Zrotation
			JOINT RFoot
			{
				OFFSET	0.0000	-46.0814	0.0000
				CHANNELS 3 Xrotation Yrotation Zrotation
				JOINT RToe
				{
					OFFSET	0.0000	-5.0648	10.5911
					CHANNELS 3 Xrotation Yrotation Zrotation
					End Site
					{
						OFFSET	0.0000	0.0000	7.1051
					}
				}
			}
		}
	}
	JOINT LThigh
	{
		OFFSET	10.7893	4.5594	-0.8894
		CHANNELS 3 Xrotation Yrotation Zrotation
		JOINT LShin
		{
			OFFSET	0.8634	-46.9293	0.0000
			CHANNELS 3 Xrotation Yrotation Zrotation
			JOINT LFoot
			{
				OFFSET	0.0000	-46.0814	0.0000
				CHANNELS 3 Xrotation Yrotation Zrotation
				JOINT LToe
				{
					OFFSET	0.0000	-5.0648	10.5911
					CHANNELS 3 Xrotation Yrotation Zrotation
					End Site
					{
						OFFSET	0.0000	0.0000	7.1051
					}
				}
			}
		}
	}
}
MOTION
Frames:	7
Frame Time: 0.0333333000
	0.1136	96.1278	2.8178	0.263320	-0.000005	-0.744012	0.000000	0.000000	0.000000	-0.116172	-0.315670	0.071198	-0.390862	-1.030755	0.188075	0.000000	0.000000	0.000000	0.000000	0.000000	0.000000	0.000000	0.000000	-12.071330	22.074460	-20.209270	-45.340570	9.254054	-38.611810	-0.149627	0.000000	0.000000	0.000000	0.000000	0.000000	0.000000	0.000000	0.000000	0.000000	0.000000	0.000000	0.000000	0.000000	0.000000	0.000000	0.000000	0.000000	0.000000	0.000000	0.000000	0.000000	0.000000	0.000000	0.000000	0.000000	0.000000	0.000000	0.000000	0.000000	0.000000	0.000000	0.000000	0.000000	0.000000	0.000000	0.000000	0.000000	0.000000	0.000000	0.000000	0.000000	0.000000	0.000000	0.000000	0.000000	0.000000	0.000000	0.000000	0.000000	0.000000	11.403570	24.229850	17.785720	43.698100	11.025100	42.208950	0.179534	0.000000	0.000000	0.000000	0.000000	0.000000	0.000000	0.000000	0.000000	0.000000	0.000000	0.000000	0.000000	0.000000	0.000000	0.000000	0.000000	0.000000	0.000000	0.000000	0.000000	0.000000	0.000000	0.000000	0.000000	0.000000	0.000000	0.000000	0.000000	0.000000	0.000000	0.000000	0.000000	0.000000	0.000000	0.000000	0.000000	0.000000	0.000000	0.000000	0.000000	0.000000	0.000000	0.000000	0.000000	0.000000	0.000000	0.000000	0.000000	-2.295224	0.078934	-2.656415	4.101930	0.019865	0.536811	-2.481599	-7.816730	-3.919136	0.000000	0.000000	0.000000	-1.608615	0.088576	5.893585	2.954509	0.118622	-1.365306	-3.245525	1.358499	0.706400	0.000000	0.000000	0.000000
	-0.6151	96.5763	4.8210	-6.656292	-2.510236	-1.271541	0.000000	0.000000	0.000000	2.267959	0.377157	0.146737	7.675899	1.328840	0.345157	0.000000	0.000000	0.000000	0.000000	0.000000	0.000000	0.000000	0.000000	-11.856260	20.424020	-21.530660	-43.573490	8.530478	-41.477050	-0.133192	0.000000	0.000000	0.000000	0.000000	0.000000	0.000000	0.000000	0.000000	0.000000	0.000000	0.000000	0.000000	0.000000	0.000000	0.000000	0.000000	0.000000	0.000000	0.000000	0.000000	0.000000	0.000000	0.000000	0.000000	0.000000	0.000000	0.000000	0.000000	0.000000	0.000000	0.000000	0.000000	0.000000	0.000000	0.000000	0.000000	0.000000	0.000000	0.000000	0.000000	0.000000	0.000000	0.000000	0.000000	0.000000	0.000000	0.000000	0.000000	0.000000	0.000000	11.100720	24.113360	21.932910	40.038860	12.858210	41.671960	0.175865	0.000000	0.000000	0.000000	0.000000	0.000000	0.000000	0.000000	0.000000	0.000000	0.000000	0.000000	0.000000	0.000000	0.000000	0.000000	0.000000	0.000000	0.000000	0.000000	0.000000	0.000000	0.000000	0.000000	0.000000	0.000000	0.000000	0.000000	0.000000	0.000000	0.000000	0.000000	0.000000	0.000000	0.000000	0.000000	0.000000	0.000000	0.000000	0.000000	0.000000	0.000000	0.000000	0.000000	0.000000	0.000000	0.000000	0.000000	0.000000	5.420201	-0.219148	-2.022182	4.586826	-0.011437	0.292092	-3.098713	-3.259886	-1.657397	0.000000	0.000000	0.000000	4.718279	0.938769	5.038458	10.016530	0.726456	-0.614187	-3.832789	0.285084	0.153209	-0.024646	0.000000	0.000000
	-1.0389	96.8856	5.6904	-11.023850	-3.868029	-1.860851	0.000000	0.000000	0.000000	3.722316	0.796753	0.245048	12.936950	2.888297	0.340709	0.000000	0.000000	0.000000	0.000000	0.000000	0.000000	0.000000	0.000000	-11.723720	19.625930	-23.191510	-42.061730	8.600147	-42.601570	-0.135030	0.000000	0.000000	0.000000	0.000000	0.000000	0.000000	0.000000	0.000000	0.000000	0.000000	0.000000	0.000000	0.000000	0.000000	0.000000	0.000000	0.000000	0.000000	0.000000	0.000000	0.000000	0.000000	0.000000	0.000000	0.000000	0.000000	0.000000	0.000000	0.000000	0.000000	0.000000	0.000000	0.000000	0.000000	0.000000	0.000000	0.000000	0.000000	0.000000	0.000000	0.000000	0.000000	0.000000	0.000000	0.000000	0.000000	0.000000	0.000000	0.000000	0.000000	10.901080	24.124210	24.192270	37.846900	13.835120	41.484540	0.181914	0.000000	0.000000	0.000000	0.000000	0.000000	0.000000	0.000000	0.000000	0.000000	0.000000	0.000000	0.000000	0.000000	0.000000	0.000000	0.000000	0.000000	0.000000	0.000000	0.000000	0.000000	0.000000	0.000000	0.000000	0.000000	0.000000	0.000000	0.000000	0.000000	0.000000	0.000000	0.000000	0.000000	0.000000	0.000000	0.000000	0.000000	0.000000	0.000000	0.000000	0.000000	0.000000	0.000000	0.000000	0.000000	0.000000	0.000000	0.000000	9.981174	-0.409628	-1.586536	6.113674	-0.101187	0.371699	-3.538423	-0.860730	-0.449820	0.000000	0.000000	0.000000	8.367672	1.080809	4.568931	15.577650	0.800003	-0.174465	-3.709528	-0.226659	-0.116323	-0.371350	0.000000	0.000000
	-1.1314	97.0543	5.6313	-12.449680	-4.010904	-2.281046	0.000000	0.000000	0.000000	4.165993	0.914696	0.366732	14.859260	3.456822	0.561415	0.000000	0.000000	0.000000	0.000000	0.000000	0.000000	0.000000	0.000000	-11.689390	19.596910	-24.785540	-41.167740	9.206535	-42.064920	-0.136341	0.000000	0.000000	0.000000	0.000000	0.000000	0.000000	0.000000	0.000000	0.000000	0.000000	0.000000	0.000000	0.000000	0.000000	0.000000	0.000000	0.000000	0.000000	0.000000	0.000000	0.000000	0.000000	0.000000	0.000000	0.000000	0.000000	0.000000	0.000000	0.000000	0.000000	0.000000	0.000000	0.000000	0.000000	0.000000	0.000000	0.000000	0.000000	0.000000	0.000000	0.000000	0.000000	0.000000	0.000000	0.000000	0.000000	0.000000	0.000000	0.000000	0.000000	10.809930	24.011210	24.183540	37.344960	13.826920	41.972250	0.182730	0.000000	0.000000	0.000000	0.000000	0.000000	0.000000	0.000000	0.000000	0.000000	0.000000	0.000000	0.000000	0.000000	0.000000	0.000000	0.000000	0.000000	0.000000	0.000000	0.000000	0.000000	0.000000	0.000000	0.000000	0.000000	0.000000	0.000000	0.000000	0.000000	0.000000	0.000000	0.000000	0.000000	0.000000	0.000000	0.000000	0.000000	0.000000	0.000000	0.000000	0.000000	0.000000	0.000000	0.000000	0.000000	0.000000	0.000000	0.000000	10.765950	-0.508508	-1.183434	9.040748	-0.217969	0.520481	-3.624527	-0.557657	-0.287954	0.000000	0.000000	0.000000	8.926163	0.875417	4.668700	19.288500	0.574903	-0.002255	-2.926396	-0.719423	-0.370346	-1.531433	0.000000	0.000000
	-1.1114	97.1184	5.4061	-12.479070	-3.721484	-2.560889	0.000000	0.000000	0.000000	4.215087	0.919790	0.453983	15.007610	3.486317	0.985990	0.000000	0.000000	0.000000	0.000000	0.000000	0.000000	0.000000	0.000000	-11.693320	19.727100	-25.698270	-40.947860	9.616350	-41.268290	-0.144285	0.000000	0.000000	0.000000	0.000000	0.000000	0.000000	0.000000	0.000000	0.000000	0.000000	0.000000	0.000000	0.000000	0.000000	0.000000	0.000000	0.000000	0.000000	0.000000	0.000000	0.000000	0.000000	0.000000	0.000000	0.000000	0.000000	0.000000	0.000000	0.000000	0.000000	0.000000	0.000000	0.000000	0.000000	0.000000	0.000000	0.000000	0.000000	0.000000	0.000000	0.000000	0.000000	0.000000	0.000000	0.000000	0.000000	0.000000	0.000000	0.000000	0.000000	10.771930	23.811970	23.191310	37.588810	13.379290	42.803840	0.184240	0.000000	0.000000	0.000000	0.000000	0.000000	0.000000	0.000000	0.000000	0.000000	0.000000	0.000000	0.000000	0.000000	0.000000	0.000000	0.000000	0.000000	0.000000	0.000000	0.000000	0.000000	0.000000	0.000000	0.000000	0.000000	0.000000	0.000000	0.000000	0.000000	0.000000	0.000000	0.000000	0.000000	0.000000	0.000000	0.000000	0.000000	0.000000	0.000000	0.000000	0.000000	0.000000	0.000000	0.000000	0.000000	0.000000	0.000000	0.000000	9.718882	-0.514048	-0.680420	12.310320	-0.320013	0.376330	-3.245037	-0.689270	-0.353285	0.000000	0.000000	0.000000	8.198121	0.740548	4.995802	21.533870	0.436824	-0.054142	-2.125109	-1.077529	-0.542217	-3.215832	0.000000	0.000000
	-1.1085	97.1268	5.3096	-12.353580	-3.550277	-2.747956	0.000000	0.000000	0.000000	4.223832	0.920060	0.483319	14.794270	3.410340	1.288289	0.000000	0.000000	0.000000	0.000000	0.000000	0.000000	0.000000	0.000000	-11.696140	19.767510	-25.923130	-41.032840	9.687664	-40.944100	-0.147481	0.000000	0.000000	0.000000	0.000000	0.000000	0.000000	0.000000	0.000000	0.000000	0.000000	0.000000	0.000000	0.000000	0.000000	0.000000	0.000000	0.000000	0.000000	0.000000	0.000000	0.000000	0.000000	0.000000	0.000000	0.000000	0.000000	0.000000	0.000000	0.000000	0.000000	0.000000	0.000000	0.000000	0.000000	0.000000	0.000000	0.000000	0.000000	0.000000	0.000000	0.000000	0.000000	0.000000	0.000000	0.000000	0.000000	0.000000	0.000000	0.000000	0.000000	10.759370	23.661370	22.485440	37.850060	13.028110	43.332200	0.189672	0.000000	0.000000	0.000000	0.000000	0.000000	0.000000	0.000000	0.000000	0.000000	0.000000	0.000000	0.000000	0.000000	0.000000	0.000000	0.000000	0.000000	0.000000	0.000000	0.000000	0.000000	0.000000	0.000000	0.000000	0.000000	0.000000	0.000000	0.000000	0.000000	0.000000	0.000000	0.000000	0.000000	0.000000	0.000000	0.000000	0.000000	0.000000	0.000000	0.000000	0.000000	0.000000	0.000000	0.000000	0.000000	0.000000	0.000000	0.000000	8.670737	-0.485763	-0.261964	14.720770	-0.398626	0.047008	-2.553215	-0.463035	-0.233930	0.000000	0.000000	0.000000	7.665533	0.710585	5.239369	22.526460	0.401484	-0.152805	-1.728483	-0.782664	-0.387166	-4.329089	0.000000	0.000000
	-1.1189	97.1265	5.2838	-12.321220	-3.524624	-2.801827	0.000000	0.000000	0.000000	4.230894	0.922345	0.486237	14.725250	3.388124	1.373960	0.000000	0.000000	0.000000	0.000000	0.000000	0.000000	0.000000	0.000000	-11.695610	19.780440	-25.918360	-41.072760	9.710375	-40.946460	-0.147641	0.000000	0.000000	0.000000	0.000000	0.000000	0.000000	0.000000	0.000000	0.000000	0.000000	0.000000	0.000000	0.000000	0.000000	0.000000	0.000000	0.000000	0.000000	0.000000	0.000000	0.000000	0.000000	0.000000	0.000000	0.000000	0.000000	0.000000	0.000000	0.000000	0.000000	0.000000	0.000000	0.000000	0.000000	0.000000	0.000000	0.000000	0.000000	0.000000	0.000000	0.000000	0.000000	0.000000	0.000000	0.000000	0.000000	0.000000	0.000000	0.000000	0.000000	10.751720	23.608770	22.287460	37.941600	12.915080	43.480710	0.190867	0.000000	0.000000	0.000000	0.000000	0.000000	0.000000	0.000000	0.000000	0.000000	0.000000	0.000000	0.000000	0.000000	0.000000	0.000000	0.000000	0.000000	0.000000	0.000000	0.000000	0.000000	0.000000	0.000000	0.000000	0.000000	0.000000	0.000000	0.000000	0.000000	0.000000	0.000000	0.000000	0.000000	0.000000	0.000000	0.000000	0.000000	0.000000	0.000000	0.000000	0.000000	0.000000	0.000000	0.000000	0.000000	0.000000	0.000000	0.000000	8.150436	-0.473712	-0.075247	16.139650	-0.440585	-0.127850	-1.971253	-0.139507	-0.069510	0.000000	0.000000	0.000000	7.538969	0.707648	5.332625	22.839590	0.396713	-0.229156	-1.739908	-0.268766	-0.133731	-4.385754	0.000000	0.000000
